<mxfile host="app.diagrams.net" modified="2023-05-30T13:11:25.594Z" agent="Mozilla/5.0 (Macintosh; Intel Mac OS X 10.15; rv:109.0) Gecko/20100101 Firefox/113.0" etag="URS961c59T-84Y5CVUyb" version="21.3.3" type="github" pages="2">
  <diagram id="bUzdTm8xm-PVx8S1yaQr" name="Page-1">
    <mxGraphModel dx="2068" dy="821" grid="1" gridSize="10" guides="1" tooltips="1" connect="1" arrows="1" fold="1" page="1" pageScale="1" pageWidth="850" pageHeight="1100" math="0" shadow="0">
      <root>
        <mxCell id="0" />
        <mxCell id="1" parent="0" />
        <mxCell id="7_VD-Ki3XaP80nxqoQyv-9" value="" style="edgeStyle=orthogonalEdgeStyle;rounded=0;orthogonalLoop=1;jettySize=auto;html=1;" parent="1" source="7_VD-Ki3XaP80nxqoQyv-1" target="7_VD-Ki3XaP80nxqoQyv-7" edge="1">
          <mxGeometry relative="1" as="geometry" />
        </mxCell>
        <mxCell id="7_VD-Ki3XaP80nxqoQyv-1" value="Compound" style="rounded=0;whiteSpace=wrap;html=1;" parent="1" vertex="1">
          <mxGeometry x="450" y="100" width="120" height="50" as="geometry" />
        </mxCell>
        <mxCell id="7_VD-Ki3XaP80nxqoQyv-22" style="edgeStyle=orthogonalEdgeStyle;rounded=0;orthogonalLoop=1;jettySize=auto;html=1;exitX=0.5;exitY=1;exitDx=0;exitDy=0;entryX=0.5;entryY=0;entryDx=0;entryDy=0;" parent="1" source="7_VD-Ki3XaP80nxqoQyv-2" target="7_VD-Ki3XaP80nxqoQyv-15" edge="1">
          <mxGeometry relative="1" as="geometry" />
        </mxCell>
        <mxCell id="7_VD-Ki3XaP80nxqoQyv-2" value="Brightfield" style="rounded=0;whiteSpace=wrap;html=1;" parent="1" vertex="1">
          <mxGeometry x="120" y="280" width="120" height="60" as="geometry" />
        </mxCell>
        <mxCell id="7_VD-Ki3XaP80nxqoQyv-25" value="" style="edgeStyle=orthogonalEdgeStyle;rounded=0;orthogonalLoop=1;jettySize=auto;html=1;" parent="1" source="7_VD-Ki3XaP80nxqoQyv-3" target="7_VD-Ki3XaP80nxqoQyv-16" edge="1">
          <mxGeometry relative="1" as="geometry" />
        </mxCell>
        <mxCell id="7_VD-Ki3XaP80nxqoQyv-3" value="Cell Painting" style="rounded=0;whiteSpace=wrap;html=1;" parent="1" vertex="1">
          <mxGeometry x="280" y="280" width="120" height="60" as="geometry" />
        </mxCell>
        <mxCell id="7_VD-Ki3XaP80nxqoQyv-26" value="" style="edgeStyle=orthogonalEdgeStyle;rounded=0;orthogonalLoop=1;jettySize=auto;html=1;" parent="1" source="7_VD-Ki3XaP80nxqoQyv-4" target="7_VD-Ki3XaP80nxqoQyv-17" edge="1">
          <mxGeometry relative="1" as="geometry" />
        </mxCell>
        <mxCell id="7_VD-Ki3XaP80nxqoQyv-4" value="Gene Expression" style="rounded=0;whiteSpace=wrap;html=1;" parent="1" vertex="1">
          <mxGeometry x="450" y="280" width="120" height="60" as="geometry" />
        </mxCell>
        <mxCell id="7_VD-Ki3XaP80nxqoQyv-27" value="" style="edgeStyle=orthogonalEdgeStyle;rounded=0;orthogonalLoop=1;jettySize=auto;html=1;" parent="1" source="7_VD-Ki3XaP80nxqoQyv-5" target="7_VD-Ki3XaP80nxqoQyv-18" edge="1">
          <mxGeometry relative="1" as="geometry" />
        </mxCell>
        <mxCell id="7_VD-Ki3XaP80nxqoQyv-5" value="Proteomics" style="rounded=0;whiteSpace=wrap;html=1;" parent="1" vertex="1">
          <mxGeometry x="620" y="280" width="120" height="60" as="geometry" />
        </mxCell>
        <mxCell id="7_VD-Ki3XaP80nxqoQyv-47" style="edgeStyle=orthogonalEdgeStyle;rounded=0;orthogonalLoop=1;jettySize=auto;html=1;exitX=0.5;exitY=1;exitDx=0;exitDy=0;entryX=0.5;entryY=0;entryDx=0;entryDy=0;" parent="1" source="7_VD-Ki3XaP80nxqoQyv-6" target="7_VD-Ki3XaP80nxqoQyv-19" edge="1">
          <mxGeometry relative="1" as="geometry" />
        </mxCell>
        <mxCell id="7_VD-Ki3XaP80nxqoQyv-6" value="Chemical Structure" style="rounded=0;whiteSpace=wrap;html=1;" parent="1" vertex="1">
          <mxGeometry x="780" y="280" width="120" height="60" as="geometry" />
        </mxCell>
        <mxCell id="7_VD-Ki3XaP80nxqoQyv-10" value="" style="edgeStyle=orthogonalEdgeStyle;rounded=0;orthogonalLoop=1;jettySize=auto;html=1;" parent="1" source="7_VD-Ki3XaP80nxqoQyv-7" target="7_VD-Ki3XaP80nxqoQyv-4" edge="1">
          <mxGeometry relative="1" as="geometry" />
        </mxCell>
        <mxCell id="7_VD-Ki3XaP80nxqoQyv-11" style="edgeStyle=orthogonalEdgeStyle;rounded=0;orthogonalLoop=1;jettySize=auto;html=1;exitX=0.5;exitY=1;exitDx=0;exitDy=0;entryX=0.5;entryY=0;entryDx=0;entryDy=0;" parent="1" source="7_VD-Ki3XaP80nxqoQyv-7" target="7_VD-Ki3XaP80nxqoQyv-3" edge="1">
          <mxGeometry relative="1" as="geometry" />
        </mxCell>
        <mxCell id="7_VD-Ki3XaP80nxqoQyv-12" style="edgeStyle=orthogonalEdgeStyle;rounded=0;orthogonalLoop=1;jettySize=auto;html=1;exitX=0.5;exitY=1;exitDx=0;exitDy=0;entryX=0.425;entryY=-0.05;entryDx=0;entryDy=0;entryPerimeter=0;" parent="1" source="7_VD-Ki3XaP80nxqoQyv-7" target="7_VD-Ki3XaP80nxqoQyv-2" edge="1">
          <mxGeometry relative="1" as="geometry" />
        </mxCell>
        <mxCell id="7_VD-Ki3XaP80nxqoQyv-13" style="edgeStyle=orthogonalEdgeStyle;rounded=0;orthogonalLoop=1;jettySize=auto;html=1;exitX=0.5;exitY=1;exitDx=0;exitDy=0;entryX=0.5;entryY=0;entryDx=0;entryDy=0;" parent="1" source="7_VD-Ki3XaP80nxqoQyv-7" target="7_VD-Ki3XaP80nxqoQyv-5" edge="1">
          <mxGeometry relative="1" as="geometry" />
        </mxCell>
        <mxCell id="7_VD-Ki3XaP80nxqoQyv-7" value="&lt;div&gt;Perturb cell &lt;br&gt;&lt;/div&gt;&lt;div&gt;1. Same Cell Line (U2OS) &lt;br&gt;&lt;/div&gt;&lt;div&gt;2. Same dosage (10 mmol)&lt;br&gt;&lt;/div&gt;" style="rounded=0;whiteSpace=wrap;html=1;" parent="1" vertex="1">
          <mxGeometry x="400" y="180" width="220" height="60" as="geometry" />
        </mxCell>
        <mxCell id="7_VD-Ki3XaP80nxqoQyv-31" style="edgeStyle=orthogonalEdgeStyle;rounded=0;orthogonalLoop=1;jettySize=auto;html=1;exitX=0.5;exitY=1;exitDx=0;exitDy=0;entryX=0.074;entryY=-0.033;entryDx=0;entryDy=0;entryPerimeter=0;" parent="1" source="7_VD-Ki3XaP80nxqoQyv-15" target="7_VD-Ki3XaP80nxqoQyv-29" edge="1">
          <mxGeometry relative="1" as="geometry" />
        </mxCell>
        <mxCell id="7_VD-Ki3XaP80nxqoQyv-15" value="Image" style="rounded=0;whiteSpace=wrap;html=1;" parent="1" vertex="1">
          <mxGeometry x="120" y="382" width="120" height="60" as="geometry" />
        </mxCell>
        <mxCell id="7_VD-Ki3XaP80nxqoQyv-33" style="edgeStyle=orthogonalEdgeStyle;rounded=0;orthogonalLoop=1;jettySize=auto;html=1;exitX=0.5;exitY=1;exitDx=0;exitDy=0;entryX=0.279;entryY=-0.017;entryDx=0;entryDy=0;entryPerimeter=0;" parent="1" source="7_VD-Ki3XaP80nxqoQyv-16" target="7_VD-Ki3XaP80nxqoQyv-29" edge="1">
          <mxGeometry relative="1" as="geometry" />
        </mxCell>
        <mxCell id="7_VD-Ki3XaP80nxqoQyv-16" value="Image" style="rounded=0;whiteSpace=wrap;html=1;" parent="1" vertex="1">
          <mxGeometry x="280" y="382" width="120" height="60" as="geometry" />
        </mxCell>
        <mxCell id="7_VD-Ki3XaP80nxqoQyv-34" style="edgeStyle=orthogonalEdgeStyle;rounded=0;orthogonalLoop=1;jettySize=auto;html=1;entryX=0.5;entryY=0;entryDx=0;entryDy=0;" parent="1" source="7_VD-Ki3XaP80nxqoQyv-17" target="7_VD-Ki3XaP80nxqoQyv-29" edge="1">
          <mxGeometry relative="1" as="geometry" />
        </mxCell>
        <mxCell id="7_VD-Ki3XaP80nxqoQyv-17" value="1000 up-and-down regulated genes" style="rounded=0;whiteSpace=wrap;html=1;" parent="1" vertex="1">
          <mxGeometry x="450" y="382" width="120" height="60" as="geometry" />
        </mxCell>
        <mxCell id="7_VD-Ki3XaP80nxqoQyv-36" style="edgeStyle=orthogonalEdgeStyle;rounded=0;orthogonalLoop=1;jettySize=auto;html=1;exitX=0.5;exitY=1;exitDx=0;exitDy=0;entryX=0.719;entryY=-0.05;entryDx=0;entryDy=0;entryPerimeter=0;" parent="1" source="7_VD-Ki3XaP80nxqoQyv-18" target="7_VD-Ki3XaP80nxqoQyv-29" edge="1">
          <mxGeometry relative="1" as="geometry" />
        </mxCell>
        <mxCell id="7_VD-Ki3XaP80nxqoQyv-18" value="914 up-and-down regulated proteins" style="rounded=0;whiteSpace=wrap;html=1;" parent="1" vertex="1">
          <mxGeometry x="620" y="382" width="120" height="60" as="geometry" />
        </mxCell>
        <mxCell id="7_VD-Ki3XaP80nxqoQyv-37" style="edgeStyle=orthogonalEdgeStyle;rounded=0;orthogonalLoop=1;jettySize=auto;html=1;exitX=0.5;exitY=1;exitDx=0;exitDy=0;entryX=0.922;entryY=-0.033;entryDx=0;entryDy=0;entryPerimeter=0;" parent="1" source="7_VD-Ki3XaP80nxqoQyv-19" target="7_VD-Ki3XaP80nxqoQyv-29" edge="1">
          <mxGeometry relative="1" as="geometry" />
        </mxCell>
        <mxCell id="7_VD-Ki3XaP80nxqoQyv-19" value="SMILES String" style="rounded=0;whiteSpace=wrap;html=1;" parent="1" vertex="1">
          <mxGeometry x="780" y="382" width="120" height="60" as="geometry" />
        </mxCell>
        <mxCell id="7_VD-Ki3XaP80nxqoQyv-28" value="Combine Into a Joint Model" style="rounded=0;whiteSpace=wrap;html=1;" parent="1" vertex="1">
          <mxGeometry x="450" y="690" width="120" height="60" as="geometry" />
        </mxCell>
        <mxCell id="7_VD-Ki3XaP80nxqoQyv-29" value="Train Individual Models based on MoA Class" style="rounded=0;whiteSpace=wrap;html=1;" parent="1" vertex="1">
          <mxGeometry x="120" y="480" width="780" height="60" as="geometry" />
        </mxCell>
        <mxCell id="7_VD-Ki3XaP80nxqoQyv-44" style="edgeStyle=orthogonalEdgeStyle;rounded=0;orthogonalLoop=1;jettySize=auto;html=1;exitX=0.5;exitY=1;exitDx=0;exitDy=0;entryX=0.5;entryY=0;entryDx=0;entryDy=0;" parent="1" source="7_VD-Ki3XaP80nxqoQyv-30" target="7_VD-Ki3XaP80nxqoQyv-28" edge="1">
          <mxGeometry relative="1" as="geometry" />
        </mxCell>
        <mxCell id="7_VD-Ki3XaP80nxqoQyv-30" value="Assess Model Performance" style="rounded=0;whiteSpace=wrap;html=1;" parent="1" vertex="1">
          <mxGeometry x="120" y="580" width="780" height="60" as="geometry" />
        </mxCell>
        <mxCell id="7_VD-Ki3XaP80nxqoQyv-38" style="edgeStyle=orthogonalEdgeStyle;rounded=0;orthogonalLoop=1;jettySize=auto;html=1;exitX=0.5;exitY=1;exitDx=0;exitDy=0;entryX=0.074;entryY=-0.033;entryDx=0;entryDy=0;entryPerimeter=0;" parent="1" edge="1">
          <mxGeometry relative="1" as="geometry">
            <mxPoint x="180" y="540" as="sourcePoint" />
            <mxPoint x="177.72000000000003" y="576.02" as="targetPoint" />
          </mxGeometry>
        </mxCell>
        <mxCell id="7_VD-Ki3XaP80nxqoQyv-39" style="edgeStyle=orthogonalEdgeStyle;rounded=0;orthogonalLoop=1;jettySize=auto;html=1;exitX=0.5;exitY=1;exitDx=0;exitDy=0;entryX=0.074;entryY=-0.033;entryDx=0;entryDy=0;entryPerimeter=0;" parent="1" edge="1">
          <mxGeometry relative="1" as="geometry">
            <mxPoint x="341" y="542" as="sourcePoint" />
            <mxPoint x="338.72" y="578.02" as="targetPoint" />
          </mxGeometry>
        </mxCell>
        <mxCell id="7_VD-Ki3XaP80nxqoQyv-40" style="edgeStyle=orthogonalEdgeStyle;rounded=0;orthogonalLoop=1;jettySize=auto;html=1;exitX=0.5;exitY=1;exitDx=0;exitDy=0;entryX=0.074;entryY=-0.033;entryDx=0;entryDy=0;entryPerimeter=0;" parent="1" edge="1">
          <mxGeometry relative="1" as="geometry">
            <mxPoint x="512" y="542" as="sourcePoint" />
            <mxPoint x="509.72" y="578.02" as="targetPoint" />
          </mxGeometry>
        </mxCell>
        <mxCell id="7_VD-Ki3XaP80nxqoQyv-41" style="edgeStyle=orthogonalEdgeStyle;rounded=0;orthogonalLoop=1;jettySize=auto;html=1;exitX=0.5;exitY=1;exitDx=0;exitDy=0;entryX=0.074;entryY=-0.033;entryDx=0;entryDy=0;entryPerimeter=0;" parent="1" edge="1">
          <mxGeometry relative="1" as="geometry">
            <mxPoint x="682" y="542" as="sourcePoint" />
            <mxPoint x="679.72" y="578.02" as="targetPoint" />
          </mxGeometry>
        </mxCell>
        <mxCell id="7_VD-Ki3XaP80nxqoQyv-42" style="edgeStyle=orthogonalEdgeStyle;rounded=0;orthogonalLoop=1;jettySize=auto;html=1;exitX=0.5;exitY=1;exitDx=0;exitDy=0;entryX=0.074;entryY=-0.033;entryDx=0;entryDy=0;entryPerimeter=0;" parent="1" edge="1">
          <mxGeometry relative="1" as="geometry">
            <mxPoint x="842" y="544" as="sourcePoint" />
            <mxPoint x="839.72" y="580.02" as="targetPoint" />
          </mxGeometry>
        </mxCell>
        <mxCell id="7_VD-Ki3XaP80nxqoQyv-45" value="" style="html=1;shadow=0;dashed=0;align=center;verticalAlign=middle;shape=mxgraph.arrows2.uTurnArrow;dy=11;arrowHead=43;dx2=25;" parent="1" vertex="1">
          <mxGeometry x="20" y="520" width="100" height="100" as="geometry" />
        </mxCell>
        <mxCell id="7_VD-Ki3XaP80nxqoQyv-48" value="&lt;font style=&quot;font-size: 28px;&quot;&gt;Ideal Experimental Set Up&lt;/font&gt;" style="rounded=0;whiteSpace=wrap;html=1;fillColor=#e1d5e7;strokeColor=#9673a6;" parent="1" vertex="1">
          <mxGeometry x="140" y="20" width="710" height="60" as="geometry" />
        </mxCell>
        <mxCell id="7_VD-Ki3XaP80nxqoQyv-49" value="" style="edgeStyle=orthogonalEdgeStyle;rounded=0;orthogonalLoop=1;jettySize=auto;html=1;" parent="1" source="7_VD-Ki3XaP80nxqoQyv-50" target="7_VD-Ki3XaP80nxqoQyv-65" edge="1">
          <mxGeometry relative="1" as="geometry" />
        </mxCell>
        <mxCell id="7_VD-Ki3XaP80nxqoQyv-50" value="Compound" style="rounded=0;whiteSpace=wrap;html=1;" parent="1" vertex="1">
          <mxGeometry x="1376" y="110" width="120" height="50" as="geometry" />
        </mxCell>
        <mxCell id="7_VD-Ki3XaP80nxqoQyv-51" style="edgeStyle=orthogonalEdgeStyle;rounded=0;orthogonalLoop=1;jettySize=auto;html=1;exitX=0.5;exitY=1;exitDx=0;exitDy=0;entryX=0.5;entryY=0;entryDx=0;entryDy=0;" parent="1" source="7_VD-Ki3XaP80nxqoQyv-52" target="7_VD-Ki3XaP80nxqoQyv-67" edge="1">
          <mxGeometry relative="1" as="geometry" />
        </mxCell>
        <mxCell id="7_VD-Ki3XaP80nxqoQyv-52" value="Brightfield" style="rounded=0;whiteSpace=wrap;html=1;" parent="1" vertex="1">
          <mxGeometry x="1046" y="290" width="120" height="60" as="geometry" />
        </mxCell>
        <mxCell id="7_VD-Ki3XaP80nxqoQyv-53" value="" style="edgeStyle=orthogonalEdgeStyle;rounded=0;orthogonalLoop=1;jettySize=auto;html=1;" parent="1" source="7_VD-Ki3XaP80nxqoQyv-54" target="7_VD-Ki3XaP80nxqoQyv-69" edge="1">
          <mxGeometry relative="1" as="geometry" />
        </mxCell>
        <mxCell id="7_VD-Ki3XaP80nxqoQyv-54" value="Cell Painting" style="rounded=0;whiteSpace=wrap;html=1;" parent="1" vertex="1">
          <mxGeometry x="1206" y="290" width="120" height="60" as="geometry" />
        </mxCell>
        <mxCell id="7_VD-Ki3XaP80nxqoQyv-55" value="" style="edgeStyle=orthogonalEdgeStyle;rounded=0;orthogonalLoop=1;jettySize=auto;html=1;" parent="1" source="7_VD-Ki3XaP80nxqoQyv-56" target="7_VD-Ki3XaP80nxqoQyv-71" edge="1">
          <mxGeometry relative="1" as="geometry" />
        </mxCell>
        <mxCell id="7_VD-Ki3XaP80nxqoQyv-56" value="Gene Expression" style="rounded=0;whiteSpace=wrap;html=1;" parent="1" vertex="1">
          <mxGeometry x="1376" y="290" width="120" height="60" as="geometry" />
        </mxCell>
        <mxCell id="7_VD-Ki3XaP80nxqoQyv-57" value="" style="edgeStyle=orthogonalEdgeStyle;rounded=0;orthogonalLoop=1;jettySize=auto;html=1;" parent="1" source="7_VD-Ki3XaP80nxqoQyv-58" target="7_VD-Ki3XaP80nxqoQyv-73" edge="1">
          <mxGeometry relative="1" as="geometry" />
        </mxCell>
        <mxCell id="7_VD-Ki3XaP80nxqoQyv-58" value="Proteomics" style="rounded=0;whiteSpace=wrap;html=1;" parent="1" vertex="1">
          <mxGeometry x="1546" y="290" width="120" height="60" as="geometry" />
        </mxCell>
        <mxCell id="7_VD-Ki3XaP80nxqoQyv-59" style="edgeStyle=orthogonalEdgeStyle;rounded=0;orthogonalLoop=1;jettySize=auto;html=1;exitX=0.5;exitY=1;exitDx=0;exitDy=0;entryX=0.5;entryY=0;entryDx=0;entryDy=0;" parent="1" source="7_VD-Ki3XaP80nxqoQyv-60" target="7_VD-Ki3XaP80nxqoQyv-75" edge="1">
          <mxGeometry relative="1" as="geometry" />
        </mxCell>
        <mxCell id="7_VD-Ki3XaP80nxqoQyv-60" value="Chemical Structure" style="rounded=0;whiteSpace=wrap;html=1;" parent="1" vertex="1">
          <mxGeometry x="1706" y="290" width="120" height="60" as="geometry" />
        </mxCell>
        <mxCell id="7_VD-Ki3XaP80nxqoQyv-62" style="edgeStyle=orthogonalEdgeStyle;rounded=0;orthogonalLoop=1;jettySize=auto;html=1;exitX=0.5;exitY=1;exitDx=0;exitDy=0;entryX=0.5;entryY=0;entryDx=0;entryDy=0;" parent="1" source="7_VD-Ki3XaP80nxqoQyv-65" target="7_VD-Ki3XaP80nxqoQyv-54" edge="1">
          <mxGeometry relative="1" as="geometry" />
        </mxCell>
        <mxCell id="7_VD-Ki3XaP80nxqoQyv-63" style="edgeStyle=orthogonalEdgeStyle;rounded=0;orthogonalLoop=1;jettySize=auto;html=1;exitX=0.5;exitY=1;exitDx=0;exitDy=0;entryX=0.425;entryY=-0.05;entryDx=0;entryDy=0;entryPerimeter=0;" parent="1" source="7_VD-Ki3XaP80nxqoQyv-65" target="7_VD-Ki3XaP80nxqoQyv-52" edge="1">
          <mxGeometry relative="1" as="geometry" />
        </mxCell>
        <mxCell id="7_VD-Ki3XaP80nxqoQyv-65" value="&lt;div&gt;In-House&lt;br&gt;&lt;/div&gt;&lt;div&gt;Perturb cell &lt;br&gt;&lt;/div&gt;&lt;div&gt;1. Same Cell Line (U2OS) &lt;br&gt;&lt;/div&gt;&lt;div&gt;2. Same dosage (10 mmol)&lt;br&gt;&lt;/div&gt;" style="rounded=0;whiteSpace=wrap;html=1;" parent="1" vertex="1">
          <mxGeometry x="1090" y="190" width="220" height="60" as="geometry" />
        </mxCell>
        <mxCell id="7_VD-Ki3XaP80nxqoQyv-66" style="edgeStyle=orthogonalEdgeStyle;rounded=0;orthogonalLoop=1;jettySize=auto;html=1;exitX=0.5;exitY=1;exitDx=0;exitDy=0;entryX=0.074;entryY=-0.033;entryDx=0;entryDy=0;entryPerimeter=0;" parent="1" source="7_VD-Ki3XaP80nxqoQyv-67" target="7_VD-Ki3XaP80nxqoQyv-77" edge="1">
          <mxGeometry relative="1" as="geometry" />
        </mxCell>
        <mxCell id="7_VD-Ki3XaP80nxqoQyv-67" value="Image" style="rounded=0;whiteSpace=wrap;html=1;" parent="1" vertex="1">
          <mxGeometry x="1046" y="392" width="120" height="60" as="geometry" />
        </mxCell>
        <mxCell id="7_VD-Ki3XaP80nxqoQyv-68" style="edgeStyle=orthogonalEdgeStyle;rounded=0;orthogonalLoop=1;jettySize=auto;html=1;exitX=0.5;exitY=1;exitDx=0;exitDy=0;entryX=0.279;entryY=-0.017;entryDx=0;entryDy=0;entryPerimeter=0;" parent="1" source="7_VD-Ki3XaP80nxqoQyv-69" target="7_VD-Ki3XaP80nxqoQyv-77" edge="1">
          <mxGeometry relative="1" as="geometry" />
        </mxCell>
        <mxCell id="7_VD-Ki3XaP80nxqoQyv-69" value="Image" style="rounded=0;whiteSpace=wrap;html=1;" parent="1" vertex="1">
          <mxGeometry x="1206" y="392" width="120" height="60" as="geometry" />
        </mxCell>
        <mxCell id="7_VD-Ki3XaP80nxqoQyv-70" style="edgeStyle=orthogonalEdgeStyle;rounded=0;orthogonalLoop=1;jettySize=auto;html=1;entryX=0.5;entryY=0;entryDx=0;entryDy=0;" parent="1" source="7_VD-Ki3XaP80nxqoQyv-71" target="7_VD-Ki3XaP80nxqoQyv-77" edge="1">
          <mxGeometry relative="1" as="geometry" />
        </mxCell>
        <mxCell id="7_VD-Ki3XaP80nxqoQyv-71" value="1000 up-and-down regulated genes" style="rounded=0;whiteSpace=wrap;html=1;" parent="1" vertex="1">
          <mxGeometry x="1376" y="392" width="120" height="60" as="geometry" />
        </mxCell>
        <mxCell id="7_VD-Ki3XaP80nxqoQyv-72" style="edgeStyle=orthogonalEdgeStyle;rounded=0;orthogonalLoop=1;jettySize=auto;html=1;exitX=0.5;exitY=1;exitDx=0;exitDy=0;entryX=0.719;entryY=-0.05;entryDx=0;entryDy=0;entryPerimeter=0;" parent="1" source="7_VD-Ki3XaP80nxqoQyv-73" target="7_VD-Ki3XaP80nxqoQyv-77" edge="1">
          <mxGeometry relative="1" as="geometry" />
        </mxCell>
        <mxCell id="7_VD-Ki3XaP80nxqoQyv-73" value="914 up-and-down regulated proteins" style="rounded=0;whiteSpace=wrap;html=1;" parent="1" vertex="1">
          <mxGeometry x="1546" y="392" width="120" height="60" as="geometry" />
        </mxCell>
        <mxCell id="7_VD-Ki3XaP80nxqoQyv-74" style="edgeStyle=orthogonalEdgeStyle;rounded=0;orthogonalLoop=1;jettySize=auto;html=1;exitX=0.5;exitY=1;exitDx=0;exitDy=0;entryX=0.922;entryY=-0.033;entryDx=0;entryDy=0;entryPerimeter=0;" parent="1" source="7_VD-Ki3XaP80nxqoQyv-75" target="7_VD-Ki3XaP80nxqoQyv-77" edge="1">
          <mxGeometry relative="1" as="geometry" />
        </mxCell>
        <mxCell id="7_VD-Ki3XaP80nxqoQyv-75" value="SMILES String" style="rounded=0;whiteSpace=wrap;html=1;" parent="1" vertex="1">
          <mxGeometry x="1706" y="392" width="120" height="60" as="geometry" />
        </mxCell>
        <mxCell id="7_VD-Ki3XaP80nxqoQyv-76" value="Combine Into a Joint Model" style="rounded=0;whiteSpace=wrap;html=1;" parent="1" vertex="1">
          <mxGeometry x="1376" y="720" width="120" height="60" as="geometry" />
        </mxCell>
        <mxCell id="7_VD-Ki3XaP80nxqoQyv-77" value="Train Individual Models based on MoA Class" style="rounded=0;whiteSpace=wrap;html=1;" parent="1" vertex="1">
          <mxGeometry x="1046" y="490" width="780" height="60" as="geometry" />
        </mxCell>
        <mxCell id="7_VD-Ki3XaP80nxqoQyv-78" style="edgeStyle=orthogonalEdgeStyle;rounded=0;orthogonalLoop=1;jettySize=auto;html=1;exitX=0.5;exitY=1;exitDx=0;exitDy=0;entryX=0.5;entryY=0;entryDx=0;entryDy=0;" parent="1" source="7_VD-Ki3XaP80nxqoQyv-79" target="7_VD-Ki3XaP80nxqoQyv-76" edge="1">
          <mxGeometry relative="1" as="geometry" />
        </mxCell>
        <mxCell id="7_VD-Ki3XaP80nxqoQyv-79" value="Assess Model Performance" style="rounded=0;whiteSpace=wrap;html=1;" parent="1" vertex="1">
          <mxGeometry x="1046" y="590" width="274" height="60" as="geometry" />
        </mxCell>
        <mxCell id="7_VD-Ki3XaP80nxqoQyv-80" style="edgeStyle=orthogonalEdgeStyle;rounded=0;orthogonalLoop=1;jettySize=auto;html=1;exitX=0.5;exitY=1;exitDx=0;exitDy=0;entryX=0.074;entryY=-0.033;entryDx=0;entryDy=0;entryPerimeter=0;" parent="1" edge="1">
          <mxGeometry relative="1" as="geometry">
            <mxPoint x="1106" y="550" as="sourcePoint" />
            <mxPoint x="1103.72" y="586.02" as="targetPoint" />
          </mxGeometry>
        </mxCell>
        <mxCell id="7_VD-Ki3XaP80nxqoQyv-81" style="edgeStyle=orthogonalEdgeStyle;rounded=0;orthogonalLoop=1;jettySize=auto;html=1;exitX=0.5;exitY=1;exitDx=0;exitDy=0;entryX=0.074;entryY=-0.033;entryDx=0;entryDy=0;entryPerimeter=0;" parent="1" edge="1">
          <mxGeometry relative="1" as="geometry">
            <mxPoint x="1267" y="552" as="sourcePoint" />
            <mxPoint x="1264.72" y="588.02" as="targetPoint" />
          </mxGeometry>
        </mxCell>
        <mxCell id="7_VD-Ki3XaP80nxqoQyv-82" style="edgeStyle=orthogonalEdgeStyle;rounded=0;orthogonalLoop=1;jettySize=auto;html=1;exitX=0.5;exitY=1;exitDx=0;exitDy=0;entryX=0.074;entryY=-0.033;entryDx=0;entryDy=0;entryPerimeter=0;" parent="1" edge="1">
          <mxGeometry relative="1" as="geometry">
            <mxPoint x="1438" y="552" as="sourcePoint" />
            <mxPoint x="1435.72" y="588.02" as="targetPoint" />
          </mxGeometry>
        </mxCell>
        <mxCell id="7_VD-Ki3XaP80nxqoQyv-83" style="edgeStyle=orthogonalEdgeStyle;rounded=0;orthogonalLoop=1;jettySize=auto;html=1;exitX=0.5;exitY=1;exitDx=0;exitDy=0;entryX=0.074;entryY=-0.033;entryDx=0;entryDy=0;entryPerimeter=0;" parent="1" edge="1">
          <mxGeometry relative="1" as="geometry">
            <mxPoint x="1608" y="552" as="sourcePoint" />
            <mxPoint x="1605.72" y="588.02" as="targetPoint" />
          </mxGeometry>
        </mxCell>
        <mxCell id="7_VD-Ki3XaP80nxqoQyv-84" style="edgeStyle=orthogonalEdgeStyle;rounded=0;orthogonalLoop=1;jettySize=auto;html=1;exitX=0.5;exitY=1;exitDx=0;exitDy=0;" parent="1" edge="1">
          <mxGeometry relative="1" as="geometry">
            <mxPoint x="1768" y="554" as="sourcePoint" />
            <mxPoint x="1500" y="750" as="targetPoint" />
            <Array as="points">
              <mxPoint x="1766" y="554" />
            </Array>
          </mxGeometry>
        </mxCell>
        <mxCell id="7_VD-Ki3XaP80nxqoQyv-85" value="" style="html=1;shadow=0;dashed=0;align=center;verticalAlign=middle;shape=mxgraph.arrows2.uTurnArrow;dy=11;arrowHead=43;dx2=25;" parent="1" vertex="1">
          <mxGeometry x="946" y="530" width="100" height="100" as="geometry" />
        </mxCell>
        <mxCell id="7_VD-Ki3XaP80nxqoQyv-86" value="&lt;font style=&quot;font-size: 28px;&quot;&gt;Real Experimental Set Up&lt;/font&gt;" style="rounded=0;whiteSpace=wrap;html=1;fillColor=#ffe6cc;strokeColor=#d79b00;" parent="1" vertex="1">
          <mxGeometry x="1066" y="30" width="710" height="60" as="geometry" />
        </mxCell>
        <mxCell id="7_VD-Ki3XaP80nxqoQyv-94" value="" style="edgeStyle=orthogonalEdgeStyle;rounded=0;orthogonalLoop=1;jettySize=auto;html=1;fontSize=12;" parent="1" source="7_VD-Ki3XaP80nxqoQyv-87" target="7_VD-Ki3XaP80nxqoQyv-56" edge="1">
          <mxGeometry relative="1" as="geometry" />
        </mxCell>
        <mxCell id="7_VD-Ki3XaP80nxqoQyv-87" value="&lt;div&gt;Externel Database&lt;/div&gt;&lt;div&gt;clue.io&lt;br&gt;&lt;/div&gt;&lt;div&gt;Several Cell Lines (U2OS) &lt;br&gt;&lt;/div&gt;&lt;div&gt;Variable dosage (10 mmol)&lt;br&gt;&lt;/div&gt;" style="rounded=0;whiteSpace=wrap;html=1;" parent="1" vertex="1">
          <mxGeometry x="1346" y="190" width="180" height="60" as="geometry" />
        </mxCell>
        <mxCell id="7_VD-Ki3XaP80nxqoQyv-95" value="" style="edgeStyle=orthogonalEdgeStyle;rounded=0;orthogonalLoop=1;jettySize=auto;html=1;fontSize=12;" parent="1" source="7_VD-Ki3XaP80nxqoQyv-90" target="7_VD-Ki3XaP80nxqoQyv-58" edge="1">
          <mxGeometry relative="1" as="geometry" />
        </mxCell>
        <mxCell id="7_VD-Ki3XaP80nxqoQyv-90" value="&lt;div&gt;&lt;font style=&quot;font-size: 12px;&quot;&gt;Externel Database&lt;/font&gt;&lt;/div&gt;&lt;div&gt;&lt;font style=&quot;font-size: 12px;&quot;&gt;clue.io and &lt;i&gt;A proteome-wide atlas&lt;/i&gt;&lt;br&gt;&lt;/font&gt;&lt;/div&gt;&lt;div&gt;&lt;font style=&quot;font-size: 12px;&quot;&gt;Several Cell Lines &lt;br&gt;&lt;/font&gt;&lt;/div&gt;&lt;div&gt;&lt;font style=&quot;font-size: 12px;&quot;&gt;Unknown dosage&lt;br&gt;&lt;/font&gt;&lt;/div&gt;" style="rounded=0;whiteSpace=wrap;html=1;" parent="1" vertex="1">
          <mxGeometry x="1540" y="170" width="180" height="80" as="geometry" />
        </mxCell>
        <mxCell id="7_VD-Ki3XaP80nxqoQyv-96" style="edgeStyle=orthogonalEdgeStyle;rounded=0;orthogonalLoop=1;jettySize=auto;html=1;exitX=0.5;exitY=1;exitDx=0;exitDy=0;entryX=0.5;entryY=0;entryDx=0;entryDy=0;fontSize=12;" parent="1" source="7_VD-Ki3XaP80nxqoQyv-91" target="7_VD-Ki3XaP80nxqoQyv-76" edge="1">
          <mxGeometry relative="1" as="geometry" />
        </mxCell>
        <mxCell id="7_VD-Ki3XaP80nxqoQyv-91" value="Transfer Learning?" style="rounded=0;whiteSpace=wrap;html=1;" parent="1" vertex="1">
          <mxGeometry x="1340" y="590" width="180" height="60" as="geometry" />
        </mxCell>
        <mxCell id="7_VD-Ki3XaP80nxqoQyv-97" style="edgeStyle=orthogonalEdgeStyle;rounded=0;orthogonalLoop=1;jettySize=auto;html=1;entryX=1;entryY=0.5;entryDx=0;entryDy=0;fontSize=12;" parent="1" source="7_VD-Ki3XaP80nxqoQyv-92" target="7_VD-Ki3XaP80nxqoQyv-76" edge="1">
          <mxGeometry relative="1" as="geometry">
            <Array as="points">
              <mxPoint x="1620" y="750" />
            </Array>
          </mxGeometry>
        </mxCell>
        <mxCell id="7_VD-Ki3XaP80nxqoQyv-92" value="Transfer Learning?" style="rounded=0;whiteSpace=wrap;html=1;" parent="1" vertex="1">
          <mxGeometry x="1540" y="590" width="180" height="60" as="geometry" />
        </mxCell>
      </root>
    </mxGraphModel>
  </diagram>
  <diagram id="w1QpoNTKAyyjsFva6v6x" name="Page-2">
    <mxGraphModel dx="1119" dy="737" grid="1" gridSize="10" guides="1" tooltips="1" connect="1" arrows="1" fold="1" page="1" pageScale="1" pageWidth="850" pageHeight="1100" math="0" shadow="0">
      <root>
        <mxCell id="0" />
        <mxCell id="1" parent="0" />
        <mxCell id="UVpuvcS8AOBdJHsnL8x4-1" value="" style="edgeStyle=orthogonalEdgeStyle;rounded=0;orthogonalLoop=1;jettySize=auto;html=1;" edge="1" parent="1" source="UVpuvcS8AOBdJHsnL8x4-2" target="UVpuvcS8AOBdJHsnL8x4-17">
          <mxGeometry relative="1" as="geometry" />
        </mxCell>
        <mxCell id="UVpuvcS8AOBdJHsnL8x4-2" value="Compound" style="rounded=0;whiteSpace=wrap;html=1;fillColor=#dae8fc;strokeColor=#6c8ebf;" vertex="1" parent="1">
          <mxGeometry x="450" y="100" width="120" height="50" as="geometry" />
        </mxCell>
        <mxCell id="UVpuvcS8AOBdJHsnL8x4-5" value="" style="edgeStyle=orthogonalEdgeStyle;rounded=0;orthogonalLoop=1;jettySize=auto;html=1;" edge="1" parent="1" source="UVpuvcS8AOBdJHsnL8x4-6" target="UVpuvcS8AOBdJHsnL8x4-21">
          <mxGeometry relative="1" as="geometry" />
        </mxCell>
        <mxCell id="UVpuvcS8AOBdJHsnL8x4-6" value="Cell Painting" style="rounded=0;whiteSpace=wrap;html=1;fillColor=#ffe6cc;strokeColor=#d79b00;" vertex="1" parent="1">
          <mxGeometry x="280" y="280" width="120" height="60" as="geometry" />
        </mxCell>
        <mxCell id="UVpuvcS8AOBdJHsnL8x4-7" value="" style="edgeStyle=orthogonalEdgeStyle;rounded=0;orthogonalLoop=1;jettySize=auto;html=1;" edge="1" parent="1" source="UVpuvcS8AOBdJHsnL8x4-8" target="UVpuvcS8AOBdJHsnL8x4-23">
          <mxGeometry relative="1" as="geometry" />
        </mxCell>
        <mxCell id="UVpuvcS8AOBdJHsnL8x4-8" value="Gene Expression" style="rounded=0;whiteSpace=wrap;html=1;fillColor=#f8cecc;strokeColor=#b85450;" vertex="1" parent="1">
          <mxGeometry x="450" y="280" width="120" height="60" as="geometry" />
        </mxCell>
        <mxCell id="UVpuvcS8AOBdJHsnL8x4-11" style="edgeStyle=orthogonalEdgeStyle;rounded=0;orthogonalLoop=1;jettySize=auto;html=1;exitX=0.5;exitY=1;exitDx=0;exitDy=0;entryX=0.5;entryY=0;entryDx=0;entryDy=0;" edge="1" parent="1" source="UVpuvcS8AOBdJHsnL8x4-12" target="UVpuvcS8AOBdJHsnL8x4-27">
          <mxGeometry relative="1" as="geometry" />
        </mxCell>
        <mxCell id="UVpuvcS8AOBdJHsnL8x4-12" value="Chemical Structure" style="rounded=0;whiteSpace=wrap;html=1;fillColor=#d5e8d4;strokeColor=#82b366;" vertex="1" parent="1">
          <mxGeometry x="621" y="280" width="120" height="60" as="geometry" />
        </mxCell>
        <mxCell id="UVpuvcS8AOBdJHsnL8x4-13" value="" style="edgeStyle=orthogonalEdgeStyle;rounded=0;orthogonalLoop=1;jettySize=auto;html=1;" edge="1" parent="1" source="UVpuvcS8AOBdJHsnL8x4-17" target="UVpuvcS8AOBdJHsnL8x4-8">
          <mxGeometry relative="1" as="geometry" />
        </mxCell>
        <mxCell id="UVpuvcS8AOBdJHsnL8x4-14" style="edgeStyle=orthogonalEdgeStyle;rounded=0;orthogonalLoop=1;jettySize=auto;html=1;exitX=0.5;exitY=1;exitDx=0;exitDy=0;entryX=0.5;entryY=0;entryDx=0;entryDy=0;" edge="1" parent="1" source="UVpuvcS8AOBdJHsnL8x4-17" target="UVpuvcS8AOBdJHsnL8x4-6">
          <mxGeometry relative="1" as="geometry" />
        </mxCell>
        <mxCell id="UVpuvcS8AOBdJHsnL8x4-17" value="&lt;div&gt;Perturb cell &lt;br&gt;&lt;/div&gt;&lt;div&gt;1. Same Cell Line (U2OS) &lt;br&gt;&lt;/div&gt;&lt;div&gt;2. Same dosage (10 mmol)&lt;br&gt;&lt;/div&gt;" style="rounded=0;whiteSpace=wrap;html=1;fillColor=#dae8fc;strokeColor=#6c8ebf;" vertex="1" parent="1">
          <mxGeometry x="400" y="180" width="220" height="60" as="geometry" />
        </mxCell>
        <mxCell id="UVpuvcS8AOBdJHsnL8x4-39" style="edgeStyle=orthogonalEdgeStyle;rounded=0;orthogonalLoop=1;jettySize=auto;html=1;exitX=0.5;exitY=1;exitDx=0;exitDy=0;entryX=0.137;entryY=0;entryDx=0;entryDy=0;entryPerimeter=0;" edge="1" parent="1" source="UVpuvcS8AOBdJHsnL8x4-21" target="UVpuvcS8AOBdJHsnL8x4-29">
          <mxGeometry relative="1" as="geometry" />
        </mxCell>
        <mxCell id="UVpuvcS8AOBdJHsnL8x4-21" value="Image" style="rounded=0;whiteSpace=wrap;html=1;fillColor=#ffe6cc;strokeColor=#d79b00;" vertex="1" parent="1">
          <mxGeometry x="280" y="382" width="120" height="60" as="geometry" />
        </mxCell>
        <mxCell id="UVpuvcS8AOBdJHsnL8x4-22" style="edgeStyle=orthogonalEdgeStyle;rounded=0;orthogonalLoop=1;jettySize=auto;html=1;entryX=0.5;entryY=0;entryDx=0;entryDy=0;" edge="1" parent="1" source="UVpuvcS8AOBdJHsnL8x4-23" target="UVpuvcS8AOBdJHsnL8x4-29">
          <mxGeometry relative="1" as="geometry" />
        </mxCell>
        <mxCell id="UVpuvcS8AOBdJHsnL8x4-23" value="1000 up-and-down regulated genes" style="rounded=0;whiteSpace=wrap;html=1;fillColor=#f8cecc;strokeColor=#b85450;" vertex="1" parent="1">
          <mxGeometry x="450" y="382" width="120" height="60" as="geometry" />
        </mxCell>
        <mxCell id="UVpuvcS8AOBdJHsnL8x4-26" style="edgeStyle=orthogonalEdgeStyle;rounded=0;orthogonalLoop=1;jettySize=auto;html=1;exitX=0.5;exitY=1;exitDx=0;exitDy=0;entryX=0.922;entryY=-0.033;entryDx=0;entryDy=0;entryPerimeter=0;" edge="1" parent="1" source="UVpuvcS8AOBdJHsnL8x4-27">
          <mxGeometry relative="1" as="geometry">
            <mxPoint x="680.1599999999999" y="478.02" as="targetPoint" />
          </mxGeometry>
        </mxCell>
        <mxCell id="UVpuvcS8AOBdJHsnL8x4-27" value="SMILES String" style="rounded=0;whiteSpace=wrap;html=1;fillColor=#d5e8d4;strokeColor=#82b366;" vertex="1" parent="1">
          <mxGeometry x="621" y="382" width="120" height="60" as="geometry" />
        </mxCell>
        <mxCell id="UVpuvcS8AOBdJHsnL8x4-28" value="Combine Into a Joint Model" style="rounded=0;whiteSpace=wrap;html=1;fillColor=#e1d5e7;strokeColor=#9673a6;" vertex="1" parent="1">
          <mxGeometry x="450" y="690" width="120" height="60" as="geometry" />
        </mxCell>
        <mxCell id="UVpuvcS8AOBdJHsnL8x4-29" value="Train Individual Models based on MoA Class" style="rounded=0;whiteSpace=wrap;html=1;fillColor=#dae8fc;strokeColor=#6c8ebf;" vertex="1" parent="1">
          <mxGeometry x="280" y="480" width="460" height="60" as="geometry" />
        </mxCell>
        <mxCell id="UVpuvcS8AOBdJHsnL8x4-30" style="edgeStyle=orthogonalEdgeStyle;rounded=0;orthogonalLoop=1;jettySize=auto;html=1;exitX=0.5;exitY=1;exitDx=0;exitDy=0;entryX=0.5;entryY=0;entryDx=0;entryDy=0;" edge="1" parent="1" source="UVpuvcS8AOBdJHsnL8x4-31" target="UVpuvcS8AOBdJHsnL8x4-28">
          <mxGeometry relative="1" as="geometry" />
        </mxCell>
        <mxCell id="UVpuvcS8AOBdJHsnL8x4-31" value="Assess Model Performance" style="rounded=0;whiteSpace=wrap;html=1;fillColor=#dae8fc;strokeColor=#6c8ebf;" vertex="1" parent="1">
          <mxGeometry x="280" y="580" width="460" height="60" as="geometry" />
        </mxCell>
        <mxCell id="UVpuvcS8AOBdJHsnL8x4-33" style="edgeStyle=orthogonalEdgeStyle;rounded=0;orthogonalLoop=1;jettySize=auto;html=1;exitX=0.5;exitY=1;exitDx=0;exitDy=0;entryX=0.074;entryY=-0.033;entryDx=0;entryDy=0;entryPerimeter=0;" edge="1" parent="1">
          <mxGeometry relative="1" as="geometry">
            <mxPoint x="341" y="542" as="sourcePoint" />
            <mxPoint x="338.72" y="578.02" as="targetPoint" />
          </mxGeometry>
        </mxCell>
        <mxCell id="UVpuvcS8AOBdJHsnL8x4-34" style="edgeStyle=orthogonalEdgeStyle;rounded=0;orthogonalLoop=1;jettySize=auto;html=1;exitX=0.5;exitY=1;exitDx=0;exitDy=0;entryX=0.074;entryY=-0.033;entryDx=0;entryDy=0;entryPerimeter=0;" edge="1" parent="1">
          <mxGeometry relative="1" as="geometry">
            <mxPoint x="512" y="542" as="sourcePoint" />
            <mxPoint x="509.72" y="578.02" as="targetPoint" />
          </mxGeometry>
        </mxCell>
        <mxCell id="UVpuvcS8AOBdJHsnL8x4-35" style="edgeStyle=orthogonalEdgeStyle;rounded=0;orthogonalLoop=1;jettySize=auto;html=1;exitX=0.5;exitY=1;exitDx=0;exitDy=0;entryX=0.074;entryY=-0.033;entryDx=0;entryDy=0;entryPerimeter=0;" edge="1" parent="1">
          <mxGeometry relative="1" as="geometry">
            <mxPoint x="682" y="542" as="sourcePoint" />
            <mxPoint x="679.72" y="578.02" as="targetPoint" />
          </mxGeometry>
        </mxCell>
        <mxCell id="UVpuvcS8AOBdJHsnL8x4-38" value="&lt;font style=&quot;font-size: 28px;&quot;&gt;Ideal Experimental Set Up&lt;/font&gt;" style="rounded=0;whiteSpace=wrap;html=1;fillColor=#e1d5e7;strokeColor=#9673a6;" vertex="1" parent="1">
          <mxGeometry x="200" y="20" width="650" height="60" as="geometry" />
        </mxCell>
      </root>
    </mxGraphModel>
  </diagram>
</mxfile>
